<?xml version="1.0" encoding="utf-8"?>
<!-- Generator: Adobe Illustrator 26.2.1, SVG Export Plug-In . SVG Version: 6.00 Build 0)  -->
<svg version="1.1" id="Layer_1" xmlns="http://www.w3.org/2000/svg" xmlns:xlink="http://www.w3.org/1999/xlink" x="0px" y="0px"
	 viewBox="0 0 64 64" style="enable-background:new 0 0 64 64;" xml:space="preserve">
<style type="text/css">
	.st0{display:none;opacity:0.6;fill-rule:evenodd;clip-rule:evenodd;enable-background:new    ;}
	.st1{fill:#FFFFFF;fill-opacity:0;}
	.st2{opacity:0.4;}
	.st3{fill:#FFFFFF;}
	.st4{fill:none;stroke:#FFFFFF;stroke-width:2;stroke-linecap:round;}
	.st5{opacity:0.6;fill:#FFFFFF;enable-background:new    ;}
</style>
<path class="st0" d="M52,14H12c-2.2,0-4,1.8-4,4v28c0,2.2,1.8,4,4,4h40c2.2,0,4-1.8,4-4V18C56,15.8,54.2,14,52,14z M12,12
	c-3.3,0-6,2.7-6,6v28c0,3.3,2.7,6,6,6h40c3.3,0,6-2.7,6-6V18c0-3.3-2.7-6-6-6H12z"/>
<g id="icon-m-scale">
	<rect id="icon-m-scale_1_" x="-195" y="-2.5" class="st1" width="64" height="64"/>
	<g class="st2">
		<path class="st3" d="M-146.4,55.5h-2c-0.6,0-1-0.4-1-1s0.4-1,1-1h2c0.6,0,1,0.4,1,1S-145.8,55.5-146.4,55.5z M-152.5,55.5h-2
			c-0.6,0-1-0.4-1-1s0.4-1,1-1h2c0.6,0,1,0.4,1,1S-151.9,55.5-152.5,55.5z M-158.5,55.5h-2c-0.6,0-1-0.4-1-1s0.4-1,1-1h2
			c0.6,0,1,0.4,1,1S-158,55.5-158.5,55.5z M-164.6,55.5h-2c-0.6,0-1-0.4-1-1s0.4-1,1-1h2c0.6,0,1,0.4,1,1S-164.1,55.5-164.6,55.5z
			 M-170.7,55.5h-2c-0.6,0-1-0.4-1-1s0.4-1,1-1h2c0.6,0,1,0.4,1,1S-170.2,55.5-170.7,55.5z M-176.8,55.5h-2c-0.6,0-1-0.4-1-1
			s0.4-1,1-1h2c0.6,0,1,0.4,1,1S-176.3,55.5-176.8,55.5z M-182.9,55.3c-0.1,0-0.2,0-0.2,0c-0.8-0.2-1.5-0.5-2.2-0.9
			c-0.5-0.3-0.6-0.9-0.3-1.4c0.3-0.5,0.9-0.6,1.4-0.3c0.5,0.3,1,0.5,1.6,0.7c0.5,0.1,0.9,0.7,0.7,1.2C-182,55-182.4,55.3-182.9,55.3
			z M-142.3,55.2c-0.4,0-0.8-0.3-1-0.7c-0.2-0.5,0.1-1.1,0.6-1.3c0.5-0.2,1.1-0.4,1.5-0.8c0.4-0.3,1.1-0.2,1.4,0.2
			c0.3,0.4,0.2,1.1-0.2,1.4c-0.6,0.5-1.3,0.8-2.1,1.1C-142.1,55.2-142.2,55.2-142.3,55.2z M-187.4,51.5c-0.4,0-0.8-0.2-0.9-0.6
			c-0.3-0.7-0.5-1.5-0.6-2.3c0-0.6,0.4-1,0.9-1.1c0.6,0,1,0.4,1.1,0.9c0,0.6,0.2,1.1,0.4,1.7c0.2,0.5,0,1.1-0.5,1.3
			C-187.1,51.5-187.2,51.5-187.4,51.5z M-138.2,51c-0.1,0-0.2,0-0.3,0c-0.5-0.2-0.8-0.7-0.6-1.3c0.2-0.5,0.3-1.1,0.3-1.7
			c0-0.6,0.4-1,1-1s1,0.4,1,1V48c0,0.8-0.1,1.6-0.4,2.3C-137.4,50.8-137.8,51-138.2,51z M-187.9,45.5c-0.6,0-1-0.4-1-1v-2
			c0-0.6,0.4-1,1-1c0.6,0,1,0.4,1,1v2C-186.9,45-187.3,45.5-187.9,45.5z M-137.9,44.9c-0.6,0-1-0.4-1-1v-2c0-0.6,0.4-1,1-1
			c0.6,0,1,0.4,1,1v2C-136.9,44.5-137.3,44.9-137.9,44.9z M-187.9,39.4c-0.6,0-1-0.4-1-1v-2c0-0.6,0.4-1,1-1c0.6,0,1,0.4,1,1v2
			C-186.9,39-187.3,39.4-187.9,39.4z M-137.9,38.8c-0.6,0-1-0.4-1-1v-2c0-0.6,0.4-1,1-1c0.6,0,1,0.4,1,1v2
			C-136.9,38.4-137.3,38.8-137.9,38.8z M-187.9,33.3c-0.6,0-1-0.4-1-1v-2c0-0.6,0.4-1,1-1c0.6,0,1,0.4,1,1v2
			C-186.9,32.9-187.3,33.3-187.9,33.3z M-137.9,32.7c-0.6,0-1-0.4-1-1v-2c0-0.6,0.4-1,1-1c0.6,0,1,0.4,1,1v2
			C-136.9,32.3-137.3,32.7-137.9,32.7z M-187.9,27.2c-0.6,0-1-0.4-1-1v-2c0-0.6,0.4-1,1-1c0.6,0,1,0.4,1,1v2
			C-186.9,26.8-187.3,27.2-187.9,27.2z M-137.9,26.6c-0.6,0-1-0.4-1-1v-2c0-0.6,0.4-1,1-1c0.6,0,1,0.4,1,1v2
			C-136.9,26.2-137.3,26.6-137.9,26.6z M-187.9,21.1c-0.6,0-1-0.4-1-1v-2c0-0.6,0.4-1,1-1c0.6,0,1,0.4,1,1v2
			C-186.9,20.7-187.3,21.1-187.9,21.1z M-137.9,20.5c-0.6,0-1-0.4-1-1v-2c0-0.6,0.4-1,1-1c0.6,0,1,0.4,1,1v2
			C-136.9,20.1-137.3,20.5-137.9,20.5z M-187.9,15c-0.6,0-1-0.4-1-1v-2c0-0.6,0.4-1,1-1c0.6,0,1,0.4,1,1v2
			C-186.9,14.6-187.3,15-187.9,15z M-137.9,14.5c-0.6,0-1-0.4-1-1v-2c0-0.6,0.4-1,1-1c0.6,0,1,0.4,1,1v2
			C-136.9,14-137.3,14.5-137.9,14.5z M-187.2,9.1c-0.2,0-0.3,0-0.5-0.1c-0.5-0.2-0.7-0.9-0.4-1.3c0.4-0.7,0.8-1.3,1.4-1.9
			c0.4-0.4,1-0.4,1.4,0c0.4,0.4,0.4,1,0,1.4c-0.4,0.4-0.7,0.9-1,1.4C-186.5,8.9-186.8,9.1-187.2,9.1z M-138.8,8.5
			c-0.3,0-0.7-0.2-0.8-0.5c-0.3-0.5-0.7-0.9-1.1-1.3c-0.4-0.4-0.5-1-0.1-1.4c0.4-0.4,1-0.5,1.4-0.1c0.6,0.5,1.1,1.1,1.5,1.8
			c0.3,0.5,0.2,1.1-0.3,1.4C-138.5,8.5-138.7,8.5-138.8,8.5z M-182.4,5.6c-0.5,0-0.9-0.3-1-0.8c-0.1-0.5,0.3-1.1,0.8-1.1
			c0.4-0.1,0.8-0.1,1.2-0.1h1c0.6,0,1,0.4,1,1s-0.4,1-1,1h-1c-0.3,0-0.6,0-0.9,0.1C-182.3,5.6-182.4,5.6-182.4,5.6z M-143.9,5.5
			C-143.9,5.5-143.9,5.5-143.9,5.5c-0.2,0-0.3,0-0.5,0h-1.6c-0.6,0-1-0.4-1-1s0.4-1,1-1h1.6c0.2,0,0.4,0,0.5,0c0.6,0,1,0.5,0.9,1.1
			C-142.9,5.1-143.3,5.5-143.9,5.5z M-150,5.5h-2c-0.6,0-1-0.4-1-1s0.4-1,1-1h2c0.6,0,1,0.4,1,1S-149.4,5.5-150,5.5z M-156.1,5.5h-2
			c-0.6,0-1-0.4-1-1s0.4-1,1-1h2c0.6,0,1,0.4,1,1S-155.5,5.5-156.1,5.5z M-162.1,5.5h-2c-0.6,0-1-0.4-1-1s0.4-1,1-1h2
			c0.6,0,1,0.4,1,1S-161.6,5.5-162.1,5.5z M-168.2,5.5h-2c-0.6,0-1-0.4-1-1s0.4-1,1-1h2c0.6,0,1,0.4,1,1S-167.7,5.5-168.2,5.5z
			 M-174.3,5.5h-2c-0.6,0-1-0.4-1-1s0.4-1,1-1h2c0.6,0,1,0.4,1,1S-173.8,5.5-174.3,5.5z"/>
	</g>
	<path class="st3" d="M-143.7,46.5H-182c-3.2,0-5.8-2.6-5.8-5.8V18.3c0-3.2,2.6-5.8,5.8-5.8h38.4c3.2,0,5.8,2.6,5.8,5.8v22.4
		C-137.9,43.9-140.5,46.5-143.7,46.5z M-182,14.5c-2.1,0-3.8,1.7-3.8,3.8v22.4c0,2.1,1.7,3.8,3.8,3.8h38.4c2.1,0,3.8-1.7,3.8-3.8
		V18.3c0-2.1-1.7-3.8-3.8-3.8H-182z"/>
</g>
<g>
	<path class="st3" d="M26.8,25.5l9.5,6.5l-9.5,6.5V25.5z M24.8,23.8v16.5c0,1.1,0.7,1.5,1.7,0.9l11.8-8c0.5-0.3,0.7-0.7,0.7-1.1
		c0-0.4-0.2-0.8-0.7-1.1l-11.8-8C25.6,22.3,24.8,22.7,24.8,23.8z"/>
	<path class="st4" d="M25.2,32h-18"/>
</g>
<path class="st5" d="M52,14H12c-3.3,0-6,2.7-6,6v8c0,0.6,0.4,1,1,1h0c0.6,0,1-0.4,1-1v-8c0-2.2,1.8-4,4-4h40c2.2,0,4,1.8,4,4v24
	c0,2.2-1.8,4-4,4H12c-2.2,0-4-1.8-4-4v-8c0-0.6-0.4-1-1-1h0c-0.6,0-1,0.4-1,1v8c0,3.3,2.7,6,6,6h40c3.3,0,6-2.7,6-6V20
	C58,16.7,55.3,14,52,14z"/>
</svg>
