<svg id="Слой_1" data-name="Слой 1" xmlns="http://www.w3.org/2000/svg" viewBox="0 0 64 64"><defs><style>.cls-1,.cls-2{fill:#fff;}.cls-1{opacity:0.6;isolation:isolate;}.cls-3{fill:none;}</style></defs><g id="Sport"><path class="cls-1" d="M55.61,26.41c-.16-.58-.34-1.16-.55-1.72A24.54026,24.54026,0,0,0,32.9,8.48c-.3-.01-.6-.02-.9-.02s-.6.01-.9.02A24.54026,24.54026,0,0,0,8.94,24.69c-.21.56-.39,1.14-.55,1.72a24.48137,24.48137,0,0,0,8.58,25.88c.47.37.96.73,1.46,1.06a24.45719,24.45719,0,0,0,27.14,0c.5-.33.99-.69,1.46-1.06a24.48137,24.48137,0,0,0,8.58-25.88ZM45.85,50.67a16.14851,16.14851,0,0,1-1.45,1.05,22.42627,22.42627,0,0,1-24.8,0,16.14851,16.14851,0,0,1-1.45-1.05A22.43818,22.43818,0,0,1,10.3,27.03c.15-.59.34-1.16.54-1.72A22.551,22.551,0,0,1,31.1,10.48c.3-.01.6-.02.9-.02s.6.01.9.02A22.551,22.551,0,0,1,53.16,25.31c.2.56.39,1.13.54,1.72a22.43818,22.43818,0,0,1-7.85,23.64Z"/><path class="cls-2" d="M44.94855,29.87511,53.7,27.03c-.15-.59-.34-1.16-.54-1.72L44.3901,28.16425A2,2,0,0,1,42.59488,27.88l-8.87111-6.451A2,2,0,0,1,32.9,19.81144V10.48c-.3-.01-.6-.02-.9-.02s-.6.01-.9.02v9.33146a2,2,0,0,1-.82375,1.61753L21.40512,27.88a2,2,0,0,1-1.79522.28428L10.84,25.31c-.2.56-.39,1.13-.54,1.72l8.75146,2.84514A2,2,0,0,1,20.335,31.15854L23.725,41.58148a2,2,0,0,1-.283,1.79291L18.15,50.67a16.14851,16.14851,0,0,0,1.45,1.05l5.301-7.28657a2,2,0,0,1,1.6173-.82341H37.48174a2,2,0,0,1,1.6173.82341L44.4,51.72a16.14851,16.14851,0,0,0,1.45-1.05l-5.292-7.29559a2,2,0,0,1-.283-1.79291L43.665,31.15854A2,2,0,0,1,44.94855,29.87511ZM36.85587,41.81H27.14413a2,2,0,0,1-1.90254-1.38326l-2.99381-9.23539a2,2,0,0,1,.727-2.23483l7.84969-5.70259a2,2,0,0,1,2.351,0l7.84969,5.70259a2,2,0,0,1,.727,2.23483l-2.99381,9.23539A2,2,0,0,1,36.85587,41.81Z"/><rect class="cls-3" width="64" height="64"/></g></svg>