<svg id="Слой_1" data-name="Слой 1" xmlns="http://www.w3.org/2000/svg" viewBox="0 0 64 64"><defs><style>.cls-1,.cls-3{fill:none;}.cls-2{fill:#fff;}.cls-3{stroke:#fff;stroke-linecap:round;stroke-linejoin:round;stroke-width:2px;opacity:0.6;}</style></defs><g id="Cat"><rect class="cls-1" width="64" height="64"/><path class="cls-2" d="M46.80005,17.73625V47.225A1.20137,1.20137,0,0,1,45.6,48.425H18.4A1.20137,1.20137,0,0,1,17.2,47.225V17.73625l4.75061,3.80049A2,2,0,0,0,23.2,21.975h17.6001a2,2,0,0,0,1.24939-.43827l4.75061-3.80049m2-4.16125-8,6.4H23.2l-8-6.4v33.65A3.20007,3.20007,0,0,0,18.4,50.425H45.6a3.20007,3.20007,0,0,0,3.20007-3.2V13.575Z"/><path class="cls-3" d="M38.13794,36.57677a34.14806,34.14806,0,0,1,17.66809,0"/><path class="cls-3" d="M25.86206,36.57677a34.14806,34.14806,0,0,0-17.66809,0"/><path class="cls-3" d="M25.82736,39.638a25.84124,25.84124,0,0,0-14.58077,2.91341"/><path class="cls-3" d="M38.17264,39.638a25.84124,25.84124,0,0,1,14.58077,2.91341"/><circle class="cls-2" cx="32.2041" cy="36.625" r="1"/><path class="cls-2" d="M32.20422,34.625a2,2,0,1,0,2,2,2.00005,2.00005,0,0,0-2-2Z"/></g></svg>