<svg id="Слой_1" data-name="Слой 1" xmlns="http://www.w3.org/2000/svg" viewBox="0 0 64 64"><defs><style>.cls-1,.cls-2{fill:#fff;}.cls-2{opacity:0.6;}.cls-3{fill:none;}</style></defs><g id="Party"><path class="cls-1" d="M38,55H33V40.98c3.27-1.4,5.61-9.89,5.94-12.21.74-5.13.21-20.17.18-20.81A.993.993,0,0,0,38.13,7H25.87a1.00193,1.00193,0,0,0-1,.96c-.02.64-.54,15.68005.19,20.81.33,2.29,2.63,10.58,5.94,12.15V55H26a1,1,0,0,0,0,2H38a1,1,0,0,0,0-2ZM27.04,28.49a96.832,96.832,0,0,1-.36-11.28c0-.68.01-1.35.02-2,.04-2.65.11-4.97.14-6.21H37.16c.03,1.24.1,3.56.14,6.21.01.65.02,1.32.02,2a96.832,96.832,0,0,1-.36,11.28c-.57,3.97-3.43,10.69-4.87,10.69C30.49,39.18,27.63,32.61,27.04,28.49Z"/><path class="cls-2" d="M37.32,17.21H26.68c0-.68.01-1.35.02-2H37.3C37.31,15.86,37.32,16.53,37.32,17.21Z"/><rect class="cls-3" width="64" height="64"/></g></svg>