<svg id="Слой_1" data-name="Слой 1" xmlns="http://www.w3.org/2000/svg" viewBox="0 0 64 64"><defs><style>.cls-1{fill:none;}.cls-2{fill:#fff;}</style></defs><g id="Love"><rect id="icon-m-favorite" class="cls-1" width="64" height="64"/><path class="cls-2" d="M31.89013,52.63884a.97566.97566,0,0,1-.69032-.286L13.74254,34.896c-6.85934-6.85934-5.7104-15.187-1.02976-19.8672a12.909,12.909,0,0,1,9.12767-3.84729,14.71951,14.71951,0,0,1,10.05064,4.21772c3.97029-3.60892,8.76058-4.98384,13.27435-3.77483a13.19639,13.19639,0,0,1,9.306,9.306c1.27958,4.77741-.33657,9.86757-4.43463,13.96563L32.58045,52.3528A.97563.97563,0,0,1,31.89013,52.63884ZM21.88049,13.13424h-.03432a11.186,11.186,0,0,0-11.028,11.02795,13.23,13.23,0,0,0,4.305,9.35317l16.767,16.76648,16.766-16.76648h0c3.6442-3.6442,5.03914-7.93439,3.92834-12.07965a11.38655,11.38655,0,0,0-7.92438-7.92485c-4.14478-1.11271-8.43544.28414-12.07965,3.92834a1.005,1.005,0,0,1-1.38064,0A13.24525,13.24525,0,0,0,21.88049,13.13424Z"/></g></svg>