<svg id="Слой_1" data-name="Слой 1" xmlns="http://www.w3.org/2000/svg" viewBox="0 0 64 64"><defs><style>.cls-1,.cls-2{fill:#fff;}.cls-2{opacity:0.6;}.cls-3{fill:none;}</style></defs><g id="Channels"><path class="cls-1" d="M51.25,13.725a1.30727,1.30727,0,0,0-.39.05l-38.5,10.08A1.9617,1.9617,0,0,0,11,25.805v8.81a1.96173,1.96173,0,0,0,1.36,1.95l6.53,1.71,1.75.46,14.2,3.72,1.75.46,14.27,3.74a1.73921,1.73921,0,0,0,.39.05,1.89553,1.89553,0,0,0,1.75-2V15.725A1.88908,1.88908,0,0,0,51.25,13.725Zm-.05,30.98a.398.398,0,0,1-.03.17l-14.4-3.77-1.83-.48-13.49-3.54-1.82-.48-6.77-1.77a.384.384,0,0,1-.06-.22v-8.81a.38374.38374,0,0,1,.06-.22l38.31-10.03a.36891.36891,0,0,1,.03.17Z"/><path class="cls-2" d="M36.59,42.915a9.16461,9.16461,0,1,1-17.7-4.64l1.75.46a7.24885,7.24885,0,0,0-.4,2.37994,7.36166,7.36166,0,0,0,14.6,1.34Z"/><rect class="cls-3" width="64" height="64"/></g></svg>