<svg id="Слой_1" data-name="Слой 1" xmlns="http://www.w3.org/2000/svg" viewBox="0 0 64 64"><defs><style>.cls-1,.cls-2,.cls-3{fill:#fff;}.cls-1{fill-opacity:0;}.cls-2{opacity:0.6;isolation:isolate;}.cls-4{fill:none;stroke:#fff;stroke-linecap:round;stroke-miterlimit:10;stroke-width:1.8px;}</style></defs><g id="Bots"><rect id="icon-m-contact" class="cls-1" width="64" height="64"/><path class="cls-2" d="M22,41.5H42a8.99944,8.99944,0,0,1,9,9,9.16785,9.16785,0,0,1-.055,1h2.01c.03-.329.045-.663.045-1a11.00017,11.00017,0,0,0-11-11H22a11.00017,11.00017,0,0,0-11,11c0,.337.015.671.045,1h2.01a9.16785,9.16785,0,0,1-.055-1A8.99944,8.99944,0,0,1,22,41.5Z"/><path class="cls-3" d="M42,19.3a.20022.20022,0,0,1,.2.2v14a.20022.20022,0,0,1-.2.2H22a.20022.20022,0,0,1-.2-.2v-14a.20022.20022,0,0,1,.2-.2H42m0-1.8H22a2,2,0,0,0-2,2v14a2,2,0,0,0,2,2H42a2,2,0,0,0,2-2v-14a2,2,0,0,0-2-2Z"/><line class="cls-4" x1="47" y1="32.5" x2="47" y2="20.5"/><line class="cls-4" x1="17" y1="32.5" x2="17" y2="20.5"/></g></svg>