<svg id="Слой_1" data-name="Слой 1" xmlns="http://www.w3.org/2000/svg" viewBox="0 0 64 64"><defs><style>.cls-1,.cls-2{fill:#fff;}.cls-2{opacity:0.6;}.cls-3{fill:none;}</style></defs><g id="Crown"><path class="cls-1" d="M52.11323,22.92a.99757.99757,0,0,0-1.11.03l-10.88,7.83-7.27-11.84a.99818.99818,0,0,0-.85-.48,1.01481,1.01481,0,0,0-.86.48l-7.27,11.84-10.88-7.83a.99707.99707,0,0,0-1.11-.03,1.01028,1.01028,0,0,0-.46,1.01l1.95,11.78.23,1.38c.46,2.46,1.13,4.95,3.13,6.67,1.59,1.36,4,2.24,7.8,2.24h14.93c3.79,0,6.22-.88,7.80005-2.24,2.13-1.82,2.75995-4.51,3.21-7.13l.15-.91,1.95-11.79A.97716.97716,0,0,0,52.11323,22.92Zm-3.68,13.75c-.73,4.05-1.93,7.33-8.97,7.33h-14.93c-7.22,0-8.27-3.29-9.02-7.62l-.02-.09c-.05-.29-.1-.59-.15-.89l-1.55-9.41,9.79,7.05a.07583.07583,0,0,0,.04.02s.01.02.02.02a.96644.96644,0,0,0,.25995.11,1.24065,1.24065,0,0,0,.27.03,1.13274,1.13274,0,0,0,.25-.03,1.0953,1.0953,0,0,0,.23-.09.95258.95258,0,0,0,.2-.15.65542.65542,0,0,0,.15-.18s.02-.01.02-.02l6.98-11.38,6.97,11.38a.57861.57861,0,0,0,.1.12.62717.62717,0,0,0,.11.12.85536.85536,0,0,0,.2.13.82559.82559,0,0,0,.22.08.8519.8519,0,0,0,.23.03.72614.72614,0,0,0,.25-.04,1.02477,1.02477,0,0,0,.27-.11c.02-.01.04-.03.06-.04l9.79-7.05-1.55,9.4Z"/><path class="cls-1" d="M32,12.90536a2,2,0,1,0,2,2,2,2,0,0,0-2-2Z"/><path class="cls-2" d="M46,51.09464H18a1,1,0,0,1,0-2H46a1,1,0,0,1,0,2Z"/><rect class="cls-3" width="64" height="64"/></g></svg>