<svg id="Слой_1" data-name="Слой 1" xmlns="http://www.w3.org/2000/svg" viewBox="0 0 64 64"><defs><style>.cls-1,.cls-2,.cls-3{fill:#fff;}.cls-1{fill-opacity:0;}.cls-3{opacity:0.6;}</style></defs><g id="Study_2" data-name="Study 2"><rect id="icon-m-reply" class="cls-1" width="64" height="64"/><path class="cls-2" d="M48.85645,21.35107H36.14355a1,1,0,0,1,0-2h12.7129a1,1,0,0,1,0,2Z"/><path class="cls-2" d="M46.34082,27.20508H36.14355a1,1,0,0,1,0-2H46.34082a1,1,0,0,1,0,2Z"/><path class="cls-2" d="M44.36133,33.05859H36.14355a1,1,0,0,1,0-2h8.21778a1,1,0,0,1,0,2Z"/><path class="cls-2" d="M48.85645,38.9126H36.14355a1,1,0,0,1,0-2h12.7129a1,1,0,0,1,0,2Z"/><path class="cls-2" d="M26.48926,33.05859H15.60449a1,1,0,0,1,0-2H26.48926a1,1,0,0,1,0,2Z"/><path class="cls-2" d="M22.51953,38.9126h-6.915a1,1,0,1,1,0-2h6.915a1,1,0,1,1,0,2Z"/><path class="cls-2" d="M43.46582,44.7666H36.14355a1,1,0,1,1,0-2h7.32227a1,1,0,0,1,0,2Z"/><path class="cls-2" d="M26.48926,44.7666H15.60449a1,1,0,1,1,0-2H26.48926a1,1,0,0,1,0,2Z"/><path class="cls-3" d="M49.5,12.62h-14A4.49545,4.49545,0,0,0,32,14.3a4.49545,4.49545,0,0,0-3.5-1.68h-14a4.5068,4.5068,0,0,0-4.5,4.5V46.88a4.5068,4.5068,0,0,0,4.5,4.5h14A4.49563,4.49563,0,0,0,32,49.7a4.49563,4.49563,0,0,0,3.5,1.68h14a4.5068,4.5068,0,0,0,4.5-4.5V17.12A4.5068,4.5068,0,0,0,49.5,12.62Zm-21,36.76h-14a2.50735,2.50735,0,0,1-2.5-2.5V17.12a2.50735,2.50735,0,0,1,2.5-2.5h14a2.50735,2.50735,0,0,1,2.5,2.5V46.88A2.50735,2.50735,0,0,1,28.5,49.38ZM52,46.88a2.50735,2.50735,0,0,1-2.5,2.5h-14a2.50735,2.50735,0,0,1-2.5-2.5V17.12a2.50735,2.50735,0,0,1,2.5-2.5h14a2.50735,2.50735,0,0,1,2.5,2.5Z"/><path class="cls-2" d="M22.51959,23.25384a3.90654,3.90654,0,0,1-3.89508,3.8951h0a3.90655,3.90655,0,0,1-3.89508-3.8951h0a3.90654,3.90654,0,0,1,3.89508-3.8951h0a3.90653,3.90653,0,0,1,3.89508,3.8951Z"/></g></svg>