<?xml version="1.0" encoding="utf-8"?>
<!-- Generator: Adobe Illustrator 24.1.1, SVG Export Plug-In . SVG Version: 6.00 Build 0)  -->
<svg version="1.1" id="Layer_1" xmlns="http://www.w3.org/2000/svg" xmlns:xlink="http://www.w3.org/1999/xlink" x="0px" y="0px"
	 viewBox="0 0 32 32" style="enable-background:new 0 0 32 32;" xml:space="preserve">
<style type="text/css">
	.st0{fill:#FFFFFF;}
	.st1{opacity:0.6;fill:#FFFFFF;enable-background:new    ;}
</style>
<g id="icon-s-time">
	<path class="st0" d="M16,32C7.2,32,0,24.8,0,16S7.2,0,16,0s16,7.2,16,16c0,0,0,0,0,0C32,24.8,24.8,32,16,32z M16,2.6
		C8.6,2.6,2.6,8.6,2.6,16s6,13.4,13.4,13.4c7.4,0,13.4-6,13.4-13.4c0,0,0,0,0,0C29.4,8.6,23.4,2.6,16,2.6z"/>
	<path class="st1" d="M15.5,18.5c-0.4,0-0.7-0.1-0.9-0.4l-6.1-6.3c-0.5-0.5-0.5-1.4,0-1.9c0.5-0.5,1.4-0.5,1.9,0l0,0l5.2,5.4
		l9.9-9.2c0.5-0.5,1.4-0.5,1.9,0.1c0.5,0.5,0.5,1.4-0.1,1.9l-10.8,10C16.1,18.4,15.8,18.5,15.5,18.5z"/>
</g>
</svg>
