<svg id="Слой_1" data-name="Слой 1" xmlns="http://www.w3.org/2000/svg" viewBox="0 0 64 64"><defs><style>.cls-1,.cls-2,.cls-3{fill:#fff;}.cls-1{fill-opacity:0;}.cls-2{opacity:0.6;isolation:isolate;}</style></defs><g id="Private"><rect id="icon-m-contact" class="cls-1" width="64" height="64"/><path class="cls-2" d="M22,41.5H42a8.99944,8.99944,0,0,1,9,9,9.16785,9.16785,0,0,1-.055,1h2.01c.03-.329.045-.663.045-1a11.00016,11.00016,0,0,0-11-11H22a11.00017,11.00017,0,0,0-11,11c0,.337.015.671.045,1h2.01a9.16785,9.16785,0,0,1-.055-1A8.99944,8.99944,0,0,1,22,41.5Z"/><path class="cls-3" d="M32,35.5a12,12,0,1,1,12-12A12.01336,12.01336,0,0,1,32,35.5Zm0-22a10,10,0,1,0,10,10A10.01135,10.01135,0,0,0,32,13.5Z"/></g></svg>