<svg id="Слой_1" data-name="Слой 1" xmlns="http://www.w3.org/2000/svg" viewBox="0 0 64 64"><defs><style>.cls-1,.cls-2,.cls-3{fill:#fff;}.cls-1{fill-opacity:0;}.cls-3{opacity:0.6;}</style></defs><g id="Study"><rect id="icon-m-levels" class="cls-1" width="64" height="64"/><path class="cls-2" d="M52.87,23.43,36.42,14.09A9.05526,9.05526,0,0,0,32,13.04a9.05526,9.05526,0,0,0-4.42,1.05L11.12,23.43A3.68682,3.68682,0,0,0,9,26.53a3.67269,3.67269,0,0,0,2.12,3.09L16,32.39l2,1.14,9.58,5.44a6.57072,6.57072,0,0,0,1.13995.51,10.232,10.232,0,0,0,6.56006,0,6.57072,6.57072,0,0,0,1.14-.51L46,33.53l2-1.13,4.87-2.77A3.71131,3.71131,0,0,0,55,26.53,3.7115,3.7115,0,0,0,52.87,23.43Zm-.98,4.45L48,30.09l-2,1.13-.17.1-3.52,2-6.88,3.91a8.21821,8.21821,0,0,1-6.86,0l-6.88-3.91-3.52-2-.17-.1-2-1.13-3.89-2.21c-.71-.4-1.11-.89-1.11-1.35,0-.47.4-.96,1.11-1.36l16.46-9.34a7.84127,7.84127,0,0,1,6.86,0l16.46,9.34c.7.4,1.11.89,1.11,1.36C53,26.99,52.59,27.48,51.89,27.88Z"/><path class="cls-3" d="M48,32.4v9.02a6.82862,6.82862,0,0,1-2,4.68c-2.69,2.92-7.9,4.86-14,4.86S20.69,49.02,18,46.1a6.82862,6.82862,0,0,1-2-4.68V32.39l2,1.14v7.89c0,4.09,6.41,7.54,14,7.54s14-3.45,14-7.54V33.53Z"/><path class="cls-2" d="M54,42.67514a.99974.99974,0,0,1-1-1v-15.145a1,1,0,1,1,2,0v15.145A.99974.99974,0,0,1,54,42.67514Z"/></g></svg>