<svg id="Слой_1" data-name="Слой 1" xmlns="http://www.w3.org/2000/svg" viewBox="0 0 64 64"><defs><style>.cls-1,.cls-2{fill:#fff;}.cls-1{fill-opacity:0;}.cls-3,.cls-4{fill:none;stroke:#fff;stroke-linecap:round;stroke-linejoin:round;stroke-width:2px;}.cls-4{opacity:0.6;}</style></defs><g id="Trade"><rect id="icon-m-cloud-download" class="cls-1" width="64" height="64"/><path class="cls-2" d="M40.38494,15.47937l12.62044-2.407-2.407,12.62045L40.38494,15.47937m-2.67145.157L50.44141,28.36427c.77782.77782,1.58251.53033,1.789-.55013l2.9154-15.2926A1.26723,1.26723,0,0,0,53.55622,10.932L38.26433,13.84807c-1.08117.20577-1.32866,1.01046-.55084,1.78828Z"/><line class="cls-3" x1="44.07752" y1="22.00037" x2="32.85014" y2="33.22775"/><line class="cls-3" x1="25.31521" y1="25.69282" x2="10.8188" y2="40.18923"/><line class="cls-3" x1="25.31521" y1="25.69282" x2="32.85014" y2="33.22775"/><line class="cls-4" x1="12.81886" y1="47.01835" x2="12.81886" y2="53.10353"/><line class="cls-4" x1="23.04011" y1="38.12469" x2="23.04011" y2="53.10353"/><line class="cls-4" x1="33.26137" y1="40.93323" x2="33.26137" y2="53.10353"/><line class="cls-4" x1="43.48262" y1="31.74174" x2="43.48262" y2="53.10353"/></g></svg>