<svg id="Слой_1" data-name="Слой 1" xmlns="http://www.w3.org/2000/svg" viewBox="0 0 64 64"><defs><style>.cls-1,.cls-2,.cls-3{fill:none;}.cls-1,.cls-2{stroke:#fff;stroke-linecap:round;stroke-linejoin:round;stroke-width:2px;}.cls-1{opacity:0.6;}</style></defs><g id="Flower"><path class="cls-1" d="M38.995,19.845v.04a6.91174,6.91174,0,0,1,3.53-.96,6.99678,6.99678,0,0,1,3.46,13.08,6.99143,6.99143,0,1,1-6.99,12.11v.04a7,7,0,0,1-14,0v-.04a6.83258,6.83258,0,0,1-3.51995.96,6.99407,6.99407,0,0,1-3.47-13.07,7.00041,7.00041,0,0,1,3.47-13.08,6.83267,6.83267,0,0,1,3.51995.96v-.04a7,7,0,0,1,14,0Z"/><circle class="cls-2" cx="32" cy="32" r="5"/><rect class="cls-3" width="64" height="64"/></g></svg>