<?xml version="1.0" encoding="utf-8"?>
<!-- Generator: Adobe Illustrator 25.2.1, SVG Export Plug-In . SVG Version: 6.00 Build 0)  -->
<svg version="1.1" id="Layer_1" xmlns="http://www.w3.org/2000/svg" xmlns:xlink="http://www.w3.org/1999/xlink" x="0px" y="0px"
	 viewBox="0 0 48 48" style="enable-background:new 0 0 48 48;" xml:space="preserve">
<style type="text/css">
	.st0{fill:#FFFFFF;}
</style>
<path class="st0" d="M41.2,24c0-10.1-8.8-18.2-19.2-17.1C14.2,7.8,7.8,14.2,6.9,22c-1.2,10.4,7,19.2,17.1,19.2h7.2c0.6,0,1-0.4,1-1
	l0,0c0-0.6-0.4-1-1-1l-6.7,0c-6.9,0-13.3-4.5-15.1-11.2C6.2,16.8,16.8,6.2,28,9.4c6.7,1.9,11.2,8.2,11.2,15.1c0,1.2,0,2.1,0,2.1
	c0,1.9-1.7,3.6-3.5,3.6s-3.5-1.7-3.5-3.6l0-2.3c0-4.4-3.4-8.3-7.8-8.5c-5.1-0.3-9.2,4.1-8.6,9.3c0.5,3.6,3.5,6.6,7.1,7
	c2.6,0.3,5-0.6,6.8-2.3l0.7-0.7l0.6,0.8c1,1.4,2.8,2.3,4.7,2.3c3.1,0,5.5-2.5,5.5-5.6V24z M25.4,30c-4.5,1-8.5-2.9-7.5-7.5
	c0.5-2.3,2.3-4.1,4.6-4.6c4.5-1,8.5,2.9,7.5,7.5C29.5,27.7,27.7,29.5,25.4,30z"/>
</svg>
