<?xml version="1.0" encoding="utf-8"?>
<!-- Generator: Adobe Illustrator 24.1.1, SVG Export Plug-In . SVG Version: 6.00 Build 0)  -->
<svg version="1.1" id="Layer_1" xmlns="http://www.w3.org/2000/svg" xmlns:xlink="http://www.w3.org/1999/xlink" x="0px" y="0px"
	 viewBox="0 0 32 32" style="enable-background:new 0 0 32 32;" xml:space="preserve">
<style type="text/css">
	.st0{fill:#FFFFFF;}
</style>
<path class="st0" d="M27.1,25V7.1c0-1.2-1-2.2-2.2-2.2H7.1c-1.2,0-2.2,1-2.2,2.2V25 M4.9,25c0,0.7,0.1,1.1,0.5,1.4
	c0.4,0.5,1.2,0.5,1.6,0l7.8-7.8c0.7-0.7,1.8-0.7,2.5,0l7.8,7.8c0.4,0.4,1.1,0.5,1.5,0c0.4-0.4,0.5-0.8,0.5-1.5 M18.6,17.1
	c-1-1-2.3-1.3-3.7-0.9c-0.6,0.2-1.1,0.5-1.5,1L7,23.5c-0.1,0.1-0.2,0-0.2-0.1V7.1C6.9,7,7,6.9,7.1,6.9h17.8c0.1,0,0.2,0.1,0.2,0.2
	v16.3c0,0.1-0.1,0.1-0.2,0.1L18.6,17.1z"/>
</svg>
