<?xml version="1.0" encoding="utf-8"?>
<!-- Generator: Adobe Illustrator 24.1.1, SVG Export Plug-In . SVG Version: 6.00 Build 0)  -->
<svg version="1.1" id="Layer_1" xmlns="http://www.w3.org/2000/svg" xmlns:xlink="http://www.w3.org/1999/xlink" x="0px" y="0px"
	 viewBox="0 0 32 32" style="enable-background:new 0 0 32 32;" xml:space="preserve">
<style type="text/css">
	.st0{fill:#FFFFFF;}
	.st1{opacity:0.6;fill:#FFFFFF;enable-background:new    ;}
</style>
<g>
	<path class="st0" d="M17,23.9c-0.4,0-0.9-0.2-1.2-0.5l-7.6-7.8c-0.6-0.7-0.6-1.7,0-2.3c0.7-0.6,1.7-0.6,2.3,0L17,20L29.3,8.6
		C30,8,31,8,31.6,8.7c0.6,0.7,0.6,1.7-0.1,2.3L18.1,23.4C17.8,23.7,17.4,23.9,17,23.9z"/>
	<path class="st1" d="M9.3,23.9c-0.4,0-0.9-0.2-1.2-0.5l-7.6-7.8c-0.6-0.7-0.6-1.7,0-2.3c0.7-0.6,1.7-0.6,2.3,0l0,0L9.3,20L21.6,8.6
		C22.3,8,23.3,8,23.9,8.7c0.6,0.7,0.6,1.7-0.1,2.3L10.4,23.4C10.1,23.7,9.7,23.9,9.3,23.9z"/>
</g>
</svg>
